<svg width="18" height="13" viewBox="0 0 18 13" fill="none" xmlns="http://www.w3.org/2000/svg">
<path d="M10.1292 8.45554C9.69733 8.74343 9.19574 8.89561 8.67858 8.89561C8.16146 8.89561 7.65987 8.74343 7.22804 8.45554L0.115568 3.71375C0.0761071 3.68744 0.0376637 3.66001 0 3.63181V11.4018C0 12.2926 0.722933 12.9996 1.59784 12.9996H15.7593C16.6501 12.9996 17.3571 12.2767 17.3571 11.4018V3.63177C17.3194 3.66005 17.2809 3.68754 17.2413 3.71388L10.1292 8.45554Z" fill="#AFCACA"/>
<path d="M0.679709 2.86773L7.79218 7.60956C8.06142 7.78906 8.36998 7.8788 8.67855 7.8788C8.98715 7.8788 9.29575 7.78903 9.56499 7.60956L16.6775 2.86773C17.1031 2.58415 17.3572 2.10954 17.3572 1.5973C17.3572 0.716526 16.6406 0 15.7599 0H1.5973C0.716559 3.39007e-05 0 0.716559 0 1.59815C0 2.10954 0.25412 2.58415 0.679709 2.86773Z" fill="#AFCACA"/>
</svg>
