<svg width="18" height="15" viewBox="0 0 18 15" fill="none" xmlns="http://www.w3.org/2000/svg">
<path d="M17.1433 7.50003C15.8927 3.75727 12.5324 1.07142 8.57181 1.07142C7.15404 1.07142 5.81691 1.42136 4.62332 2.03644L2.58684 0L1.07178 1.51506L14.5567 15L16.0718 13.4849L14.3261 11.7392C15.5972 10.6349 16.5833 9.17573 17.1432 7.49997L17.1433 7.50003ZM8.57181 3.2143C10.9388 3.2143 12.8575 5.13307 12.8575 7.50003C12.8575 8.29471 12.6321 9.03092 12.2522 9.66533L10.6413 8.0545C10.6891 7.87787 10.7147 7.69209 10.7147 7.5C10.7147 6.31649 9.75526 5.35715 8.57181 5.35715C8.38035 5.35715 8.19664 5.38605 8.0204 5.43353L6.41965 3.83278C7.05312 3.45365 7.77837 3.2143 8.57181 3.2143Z" fill="#AFCACA"/>
<path d="M8.57146 11.7856C6.2045 11.7856 4.28573 9.86677 4.28573 7.49984C4.28573 7.11845 4.35147 6.75545 4.44497 6.40351L2.04988 4.00842C1.14953 4.99436 0.441278 6.17913 0 7.49984C1.25055 11.2426 4.61083 13.9284 8.57146 13.9284C9.58482 13.9284 10.5579 13.7503 11.4674 13.4259L9.66782 11.6263C9.31585 11.7198 8.95282 11.7856 8.57146 11.7856Z" fill="#AFCACA"/>
</svg>
