<svg width="54" height="54" viewBox="0 0 54 54" fill="none" xmlns="http://www.w3.org/2000/svg">
<circle cx="27" cy="27" r="25" fill="white" stroke="#313B67" stroke-width="4"/>
<path d="M18.2335 23.6115C20.4928 23.6115 22.3244 21.7799 22.3244 19.5206C22.3244 17.2612 20.4928 15.4297 18.2335 15.4297C15.9741 15.4297 14.1426 17.2612 14.1426 19.5206C14.1426 21.7799 15.9741 23.6115 18.2335 23.6115Z" fill="#313B67"/>
<path d="M35.7667 23.6115C38.026 23.6115 39.8576 21.7799 39.8576 19.5206C39.8576 17.2612 38.026 15.4297 35.7667 15.4297C33.5073 15.4297 31.6758 17.2612 31.6758 19.5206C31.6758 21.7799 33.5073 23.6115 35.7667 23.6115Z" fill="#313B67"/>
<path d="M16.0187 38.806C16.4686 38.4595 27.1533 30.4235 37.9839 38.806L39.8569 36.1967C27.122 26.3372 14.2711 36.0991 14.1426 36.1983L16.0187 38.806Z" fill="#313B67"/>
</svg>
